<?xml version="1.0" encoding="UTF-8"?>
<svg version="1.1" viewBox="0 0 2048 2048" width="512" height="512" xmlns="http://www.w3.org/2000/svg">
<path transform="translate(396,34)" d="m0 0h1254l22 3 20 6 19 9 18 12 12 11 10 10 9 12 8 13 10 17 15 26 14 24 14 25 6 10 14 24 12 21 14 24 14 25 8 13 13 23 14 24 16 28 14 24 60 104 10 17 4 9 1 6v95l-2 26-5 25-10 30-12 24-13 19-8 10-9 10-6 7-8 7-15 12-5 3-1 9-1 988 19 1 17 3 16 6 13 8 11 9 8 8 9 13 7 14 4 13 2 12v85l-4 10-6 7-7 4-9 2h-1966l-9-3-8-6-5-7-3-12v-73l2-16 5-17 8-15 9-12 12-12 10-7 16-8 17-5 7-1 20-1v-997l-5-2-13-11-8-7-15-15-11-14-9-13-9-16-9-19-7-21-5-21-3-26v-105l3-9 15-27 10-17 14-24 12-21 15-26 14-24 15-26 12-21 45-78 14-24 16-28 15-26 10-17 16-28 14-24 12-21 7-11 10-14 6-7h2l2-4 10-9 17-12 16-8 12-5 20-5zm522 56-2 3-8 62-7 58-6 49-14 112-9 71-7 58-3 25h322l1-1-1-14-24-193-28-226-1-3zm-518 1-17 3-15 6-14 9-10 9-8 10-10 16-9 16-10 17-15 26-12 21-10 17-45 78-8 14-14 24-15 26-12 21-10 17-12 21-15 26-14 24-12 21-8 13 2 2h315l3-5 10-27 10-29 20-55 21-59 13-36 18-50 10-27 10-29 11-30 15-41 10-29 6-16v-4zm458-1-217 1-4 8-14 40-13 36-10 27-9 26-17 47-23 64-20 55-16 45-13 36-10 27-7 20-2 6h320l2-1 3-20 10-80 16-130 21-168 4-33v-6zm331 1v8l18 145 16 129 18 145 2 10h321l-2-9-11-30-19-53-22-61-19-53-17-47-19-53-17-47-23-64-7-19-1-1zm279 0 3 10 19 53 18 50 19 53 18 50 10 27 9 26 17 47 10 27 9 26 24 66 2 2h315l2-2-8-13-16-28-90-156-14-24-16-28-11-19-15-26-14-24-16-28-14-24-11-19-8-12-11-12-12-9-14-7-17-5-7-1zm-1382 493-2 1v70l3 22 4 15 8 21 10 18 9 12 11 13 7 7 17 13 13 8 19 9 15 5 18 4 15 2h32l21-3 22-6 24-10 17-10 11-8 11-9 12-12 10-11 11-16 8-14 2-4v-116zm386 1-1 5v108l3 8 10 17 10 13 11 13 9 9 14 11 10 7 16 9 20 9 21 6 16 3 10 1h32l24-4 21-6 19-8 18-10 14-10 11-10 8-7 10-11 11-15 12-21 1-4v-112l-1-1zm387 0v116l10 18 9 13 9 11 7 8h2l1 3 8 7 13 10 16 10 15 8 25 9 24 5 10 1h32l21-3 21-6 20-8 17-9 16-11 14-12 13-13 4-5v-2h2l12-18 8-14 1-4v-114zm715-1-328 1v114l8 16 7 11 10 13 9 10 10 10 14 11 14 9 23 12 24 8 21 4 9 1h33l20-3 19-5 16-6 16-8 15-9 12-9 10-9 6-5 7-8 10-12 9-14 7-12 1-3v-117zm388 0-328 1-1 39v74l4 9 9 16 10 13 12 14 14 13 15 11 15 9 17 8 16 6 22 5 16 2h31l26-4 17-5 21-9 15-9 16-12 9-8v-2l3-1 9-11 10-14 11-21 8-24 4-22 1-17v-60zm-1520 179-12 15v2h-2l-7 8-13 13-14 11-16 11-15 9-23 11-27 9-29 6-17 2h-35l-31-4-20-5h-2l-1 211v569l1 189h1690v-969l-36 7-18 2h-35l-29-4-20-5-18-6-18-8-21-11-20-14-11-9-12-11-11-11-9-11-4-6-4 1-11 13v2h-2l-7 8-12 12-11 9-12 9-19 12-27 13-27 9-29 6-17 2h-37l-23-3-22-5-24-8-24-11-17-10-14-10-16-13-11-10-1-2h-2l-2-4-10-11-8-10-5 5-9 11-12 13-7 7-14 11-12 9-18 11-17 9-20 8-25 7-20 4-17 2h-37l-24-3-25-6-23-8-25-12-18-11-17-13-20-18-11-12-11-14-3 1-8 11-8 9v2h-2v2h-2l-4 4v2h-2v2l-4 2-10 9-16 12-20 12-16 8-20 8-20 6-25 5-17 2h-36l-24-3-25-6-21-7-18-8-18-10-12-8-12-9-14-12-15-15-9-11-7-8zm-338 1114-11 4-9 7-6 8-4 9-2 13v39h1903v-47l-4-12-6-9-9-7-9-4-5-1z"/>
<path transform="translate(520,911)" d="m0 0 1122 1 17 3 16 7 12 7 11 10 5 5 8 10 7 12 6 17 2 12v636l-3 16-5 13-7 13-7 9-5 6-8 7-14 9-16 7-12 3-7 1-41 1h-111l-1086-1-18-4-16-7-13-9-10-9-8-10-8-13-6-15-3-14-1-10v-623l3-18 5-15 9-16 9-10 6-7 14-10 16-8 14-4 8-1zm-112 58-10 4-8 6-6 7-4 8-1 5-1 23v592l1 15 3 9 6 8 8 7 9 4 12 2h283l1-1 1-30 2-21 5-28 7-26 10-27 8-18 12-22 18-27 11-14 9-10 7-8 15-15 8-7 14-11 18-13 15-9 22-12 23-10 9-3-1-3-8-7-5-5h-2l-2-4-8-8-13-18-9-16-8-18-5-16-4-17-2-18v-16l2-20 4-19 7-21 10-21 8-12 8-11 7-8v-2h2l6-7 8-7 13-10 18-11 17-8 21-7 21-4 9-1h30l21 3 21 6 13 5 16 8 16 10 10 8 10 9 11 11 10 13 10 16 8 16 6 15 5 19 3 20v33l-3 19-6 22-9 21-10 18-10 13-12 14-12 11-5 3 2 2 17 7 25 12 19 11 12 8 14 10 13 11 8 7 12 11 14 15 11 14 10 13 12 19 10 18 10 21 9 24 7 24 5 24 3 23 1 39 7 1h268l18-1 11-4 8-6 6-7 4-9 1-5v-628l-4-11-6-8-7-6-9-4-4-1zm603 119-21 4-18 7-14 8-10 8-10 9-9 10-9 14-8 17-5 17-2 12v27l4 20 6 16 7 13 8 11 9 10 9 9 10 7 16 9 19 7 17 3h27l17-3 17-6 19-10 14-11 11-11 9-12 6-10 7-17 4-15 2-12v-23l-3-18-6-18-10-19-11-14-11-11-11-8-14-8-14-6-13-4-13-2zm-9 297-25 3-26 6-27 9-24 11-19 11-16 11-13 11-11 9-14 14-9 11-11 14-10 15-9 16-10 21-9 25-6 23-3 15-1 8-1 40 75 1h455l1-1v-37l-5-30-7-24-8-22-11-23-10-17-12-17-12-14-11-12-9-9-11-9-13-10-15-10-18-10-21-10-22-8-24-6-25-4-11-1z"/>
</svg>
