<?xml version="1.0" encoding="UTF-8"?>
<svg version="1.1" viewBox="0 0 2048 2048" width="512" height="512" xmlns="http://www.w3.org/2000/svg">
<path transform="translate(22,922)" d="m0 0h326l9 3 6 4 6 9 3 9v2l9 1 17 5 16 8 13 9 9 7 7 8 8 10 14 27 5 15 5 21 3 32v102l-3 9-6 8-6 4-8 2h-9l-9-3-8-7-4-8-2-8-1-100-2-21-4-17-7-17-7-11-9-9-11-7-10-4v200l1 8 14 9 12 11 8 9 10 18 7 21 1 9 8-7 9-11 12-13 31-31 8-7 10-9 13-10 17-13 14-10 23-15 28-16 19-10 24-11 27-11h2l-1-13v-19l3-10 6-7 8-5 3-1h15l10 5 6 7 3 7 2 18 6 113v3l33-16 28-13 18-8 11-3 11 2 8 4 7 9 3 8v9l-3 9-8 9-21 11-28 13-34 16-28 13-12 5-9 2-10-1-6-3-6-5-5-8-2-8-3-48-2-36-21 9-25 12-25 14-36 24-13 10-16 13-8 7-24 22-9 9-7 8-12 13-11 14-12 15-19 28-5 8-1 163-2 23-4 17-6 17-8 16-9 14-13 15-1 4 10 13 11 16 12 16 14 17 13 17 12 19 8 16 8 18 8 24 8 28 8 42 4 36 1 14v60l-4 10-4 5-10 6-5 1-17 1h-343l-16-2-9-6-4-5-4-9-1-5v-43l3-39 5-36 7-34 10-34 7-19 7-16 13-23 11-16 10-12 13-18 14-20 5-6v-2l-10-8-6-5-7-8-9-10-10-15-8-16-7-19-4-19-1-10v-240l4-30 4-14 5-13 8-13 12-15 12-9h2l-3-5-9-9-11-15-9-15-9-19-7-19-9-34-6-36-1-7-90-1-10-4-7-7-5-10v-97l7-11 7-6zm33 55v28l28 1 3-1v-28zm86 0v29l8 3 7 4 6 8 3 9 3 34 4 25 6 24 7 20 7 16 9 14 8 10h2v2l12 9 10 5 8 3 17 2h58l1-10v-206l-1-1zm121 272-19 2-17 4-15 6-9 7-6 7-7 14-3 12-2 17v231l3 19 5 14 9 15 11 13 13 11 17 9 15 5 14 2h18l16-3 24-11 10-8 13-12 12-19 1-3-57-1-11-3-8-6-5-10-1-4v-9l4-9 6-7 8-4 4-1 68-1 1-3v-44l-69-1-11-4-7-8-4-10v-9l4-10 4-5 8-5 10-2 64-1 1-1v-49l-68-1-11-4-6-5-5-10-1-3v-10l4-9 6-7 8-4 5-1 66-1 1-1-1-12-4-20-5-10-9-10-14-8-11-4-22-4-13-1zm74 431-22 7-18 3-11 1h-18l-21-3-5 1-15 22-12 17-12 16-14 19-7 11-12 24-12 36-5 20v5h283l3-1-2-11-6-23-9-26-9-19-9-15-13-17-11-14-12-15-13-19-11-15-3-4zm-192 233-1 1-2 39 1 1h306v-15l-1-18-1-7-39-1z" fill="#242022"/>
<path transform="translate(1325,907)" d="m0 0h695l10 2 8 5 6 7 4 8v109l-5 10-9 8-9 3-67 1-5 3-13 10-90 70-13 10-14 11-26 20-15 12-16 12-15 12-26 20-11 8-1 3v260l28 6 18 7 17 9 14 12 10 11 8 13 7 16 4 16 3 23 1 15v219l-2 21-3 16-7 21-12 23-10 13-11 12-12 11-13 9-18 10-27 9-18 3-10 1h-15l-24-3-26-8-23-12-13-10-10-9-5-5-10-11-7-10-10-18-5-12-6-21-3-22-1-32v-165l1-38 3-28 5-19 7-16 8-12 10-12 17-13 21-10 21-6 17-3 25-2v-258l-1-4-5-2-17-12-18-13-34-24-18-13-14-10-34-24-18-13-17-12-14-10-17-12-18-13-34-24-9-6h-50l-19-1-8-3-8-6-5-10-1-4v-106l3-8 5-7 9-6zm28 55v42l39 1 14 1 10 5 18 13 17 12 18 13 20 14 18 13 34 24 18 13 51 36 18 13 17 12 18 13 13 9 7 5 5-2 16-13 12-9 14-11 26-20 14-11 13-10 90-70 13-10 18-14 14-11 15-11 7-3 9-1h40l4-1v-41l-1-1zm303 602-24 3-15 4-12 5-9 7-8 9-5 11-5 28v3l68 1 11 4 5 4 4 6 3 10-1 9-4 9-5 5-6 4-12 2-63 1v50l66 1 11 3 8 7 5 9 1 10-3 10-6 8-6 4-9 2-67 1v47l69 1 8 3 8 6 5 10 1 10-3 9-4 6v2l-10 5-13 2-52 1 1 4 12 18 10 10 11 9 23 11 11 3 8 1h17l15-2 19-7 15-9 11-10 5-5 9-12 7-14 5-17 2-18v-216l-2-24-4-16-6-12-8-9-14-8-16-5-18-3-11-1z" fill="#242022"/>
<path transform="translate(597,546)" d="m0 0 14 1 16 5 13 8 12 9 10 9 6 9 2 5v12l-5 10-5 5-5 4-13 3-11-3-13-9-10-8-5-3-2 18v28l2 14 5 18 8 16 9 13 12 12 13 9 10 5 30 7 69 15 6 1h17l78-6 86-3h21l63 2 41 2 64 5h19l95-21 12-4 11-6 10-8 7-6 8-10 8-14 5-12 5-18 1-8 1-22-2-20v-6l-7 3-18 14-10 4-6 1-9-2-8-5-6-7-3-6-1-11 3-10 7-9 10-9 16-11 13-6 10-3 13-1 12 2 14 7 9 8 9 14 5 14 4 22 1 13v11l-2 27-6 27-8 20-9 17-14 19-17 17-16 12-10 6-2 4-6 37-10 40-12 33-11 24-11 21-14 23-13 17-8 10-12 14-23 23-8 7-15 12-17 12-17 11-24 13-20 9-25 9-21 6-25 5-14 2-13 1h-24l-20-2-23-4-23-6-26-9-23-10-22-12-18-11-14-10-18-14-12-11-17-16-7-8-11-12-14-19-10-14-14-24-12-24-11-27-9-28-7-28-7-40-2-5-10-5-14-11-15-14-13-16-11-19-5-10-7-20-5-23-2-28 1-21 5-26 7-16 8-11 10-8 11-5zm90 253 1 9 9 38 11 30 7 17 13 23 6 11 14 19 7 9 2 1-1-17-14-127-3-2-50-11zm543 0-53 11-2 3-6 57-9 80v7l5-5 14-19 7-11 10-18 8-15 14-36 7-27 6-24zm-281 6-45 1-44 2-57 4-6 1 4 40 17 154 2 7 22 12 16 9 30 12 16 5 28 6 21 2h11l28-3 31-8 24-9 20-9 21-12 10-6 2-12 20-181v-7l-4-1-77-5-76-2z" fill="#242022"/>
<path transform="translate(942,39)" d="m0 0h35l48 3 39 4 46 7 40 8 37 9 36 10 37 12 42 16 27 11 8 6 6 8 2 6v302l-3 10-8 11v25l-2 12-5 9-7 6-13 4-11-2-8-5-6-7-3-7-1-5v-40l-9-2-37-13-27-9-70-18-28-6-30-5-30-4-44-4-22-1h-50l-43 3-35 4-32 5-40 8-58 15-27 8-49 17-8 2v41l-3 10-7 9-8 4-11 2-11-3-8-6-5-8-2-7-1-33-8-10-3-11v-300l3-8 4-6 9-7 27-11 47-18 42-13 41-11 51-11 49-8 35-4 23-2zm-1 55-39 2-40 4-46 7-43 9-63 17-23 7-44 16-14 5-2 2v235l10-3 50-17 32-9 61-15 42-8 44-6 44-4 22-1h53l33 2 40 4 36 5 38 7 38 9 47 12 43 14 28 10h2v-235l-5-3-53-19-18-6-67-18-26-6-45-8-30-4-47-4-26-1z" fill="#242022"/>
<path transform="translate(591,1468)" d="m0 0h208l20 1 10 4 8 9 3 8 1 7v217l-2 14-3 6-6 7-15 10-24 15-22 14-24 15-25 16-15 9-6 3-4 1h-11l-12-5-17-11-76-48-22-14-8-6-7-9-3-11v-227l3-9 4-6 7-6 7-3zm3 55v180l4 4 21 13 22 14 24 15 22 14 5 1 10-7 24-15 22-14 19-12 17-10 1-2v-181z" fill="#242022"/>
<path transform="translate(1209,1061)" d="m0 0h15l7 3 6 4 6 10 2 10-1 23 8 4 49 20 30 16 23 13 15 10 18 13 17 12 10 8 11 10 8 7 14 12 12 11 7 8 13 14 7 8 10 11 10 13 12 17 13 18 9 14 16 29 12 22 19 46 4 11 1 10-3 9-6 8-5 4-8 3h-13l-10-5-6-7-9-19-11-28-8-17-13-23-10-18-11-16-13-18-8-11-12-14-10-11-7-8-9-10-26-24-8-7-10-8-19-14-18-13-15-9-22-13-23-12-34-15-5-2-1 31-3 52-2 12-4 8-7 7-6 3-11 1-12-3-30-14-38-18-28-13-19-9-9-7-6-12v-12l4-10 7-7 9-4 8-1 12 3 34 16 28 13 17 8v-17l6-108 2-10 4-8 8-7z" fill="#242022"/>
<path transform="translate(955,1274)" d="m0 0 11 1 10 5 6 7 4 10v681l-3 9-6 8-7 5-7 2h-9l-8-3-6-4-6-9-3-9-1-69v-180l1-429 3-10 7-9 10-5z" fill="#242022"/>
<path transform="translate(1339,828)" d="m0 0h668l10 3 9 8 4 9 1 10-3 9-4 7-8 6-6 2-12 1h-656l-10-2-8-5-5-6-4-10v-9l4-11 5-5 8-5z" fill="#242022"/>
</svg>
