<?xml version="1.0" encoding="UTF-8"?>
<svg version="1.1" viewBox="0 0 2048 2048" width="512" height="512" xmlns="http://www.w3.org/2000/svg">
<path transform="translate(689,491)" d="m0 0h282l19 2 11 4 11 6 8 6v2h2v2h2l9 13 5 10 3 14 1 40v23l13 1 41 6 28 7 31 9 43 18 23 12 17 10 20 12 65 44 25 17 12 8 37 25 31 21 33 22 19 12 25 14 16 8 20 9 16 6 28 8 28 6 188 37 54 11 26 7 22 8 24 12 14 9 11 8 14 11 8 8 6 5 7 8 12 14 11 16 10 16 8 14 8 18 9 29 2 4h1v206h-2l-5 16-6 13-7 12-12 14-13 11-10 6-14 7-18 5-12 2-24 1h-40l-7 20-11 23-8 12-8 11-9 10-7 8-8 8-14 11-11 7-18 10-18 8-29 8-21 3-11 1h-15l-22-2-15-3-27-8-16-8-19-10-15-11-10-9-17-17-10-13-11-17-11-23-7-19h-965l-7 19-12 25-10 15-10 13-15 16-14 12-15 10-29 15-21 7-20 5-28 3h-14l-23-2-14-3-30-9-29-15-13-9-11-9-12-11-7-8-11-13-12-19-8-16-7-17-7-25-15-7-22-10-72-32-15-8-11-8-12-12-7-10-8-17-4-13v-319l3-8 5-18 9-19 13-19 7-7 1-2h2l2-4h2v-2l13-10 10-7 19-9 19-6 50-11 24-6 26-9 27-12 22-10 44-28 14-11 13-11 12-11 16-15 12-11 16-13 12-9 14-10 21-13 14-8 27-14 32-13 24-8 22-6 34-7 33-4 5-1 1-59 3-14 4-10 6-10 9-10 10-8 13-6 6-2zm0 61-7 2-1 8v49l8 1h290l1-1v-54l-2-4-5-1zm-22 120-35 1-26 2-30 5-32 8-34 12-18 8-16 8-16 9-22 14-19 14-13 11-13 12-10 9-15 14-14 12-14 11-15 11-20 13-24 14-28 14-30 12-28 9-37 9-41 9-16 6-12 8-13 13-8 13-5 14-2 10-1 14v42l51 1 17 3 11 6 5 4h2l2 4 7 11 3 10 1 7v90l-3 15-8 13-1 3-4 2-11 7-16 4-55 1-1 12v42l2 10 5 8 8 6 17 8 61 27 9 4h3l4-14 4-16 10-24 10-18 10-15 10-11 9-11 10-9 13-10 17-10 22-11 25-8 13-3 29-3h13l28 3 16 4 20 6 19 9 18 10 16 12 10 9 9 9 11 14 9 12 12 22 5 11 8 25 3 15 4 26h951l5-34 6-20 4-12 8-17 6-10 6-11 12-14 9-11 13-12 14-11 11-7 22-12 17-6 20-6 23-3 11-1h15l29 3 25 7 17 6 22 12 11 7 13 11 10 8 9 9 8 10 10 13 10 18 8 16 9 28 4 24 2 15h19l36-1 10-3 14-9 8-9 5-9 3-11v-97l-91-1-16-3-9-5-9-7-9-14-3-11-1-6v-54l2-14 5-15 7-13 7-9 8-9 15-11 16-7 11-3-5-5-12-9-18-10-23-9-24-6-216-43-44-9-40-11-19-7-29-13-21-11-24-14-19-12-21-14-43-29-68-46-33-22-14-10-32-21-20-12-23-12-23-10-28-10-27-7-25-5-25-3-16-1-30-1zm1266 421-9 3-8 6-5 9-2 15v29h78l-1-17-5-21-7-17-4-7zm-1872 1v59h38v-59zm291 134-24 3-20 6-16 8-10 6-13 11-8 7-11 13-9 14-9 19-5 17-3 21v18l3 20 6 20 8 16 7 12 12 14 2 3h2v2l14 11 10 7 17 9 19 6 8 2 17 2h16l18-2 23-7 16-8 11-6 13-11 8-7 11-13 9-14 8-16 6-20 3-24v-10l-3-24-7-23-10-19-8-11-8-10-8-8-17-13-21-11-15-5-12-3-19-2zm1339 0-23 3-20 6-25 13-15 13-8 7-11 14-5 7-6 11-6 14-5 17-3 22v14l3 21 6 20 8 17 7 11 11 14 10 10 16 12 16 9 16 6 15 4 18 2h15l18-2 24-7 20-10 10-7 13-11 2-1v-2h2l11-14 6-8 9-17 7-21 3-16 1-10v-14l-2-19-6-21-11-23-8-11-8-10-10-10-16-12-16-9-13-5-18-5-19-2z"/>
<path transform="translate(676,712)" d="m0 0h300l47 1 35 3 18 3 37 9 34 13 16 7 27 15 21 13 33 22 10 7 34 23 24 16 16 11 37 25 33 22 16 10 18 11 17 12 9 8 11 15 7 15 3 11 1 7v17l-3 11-7 11-8 7-6 4-9 3-11 2h-869l-12-3-9-7-6-9-2-7v-8l3-10 6-8 8-6 9-3h217l-1-211h-92l-56 1-26 3-24 5-21 6-25 10-21 10-20 12-14 10-12 9-14 13-8 7-16 15-10 9-12 10-10 8-16 12-30 20-17 10-16 9-5 4h-2l-2 5-1 2v10l5 7 5 2 30 1h41l43 1 8 3 6 4 5 5 5 8 1 3v14l-4 9-7 8-6 4-12 3h-111l-13-2-16-6-11-7-9-7-9-11-8-14-4-12-2-13v-9l3-18 7-16 6-9 11-12 17-12 20-11 21-13 11-8 14-10 16-13 11-9 8-8 8-7 14-13 8-7 10-9 19-14 15-10 26-15 28-13 31-11 28-7 30-5 23-2zm197 61-31 1v211h570l-4-5-26-16-24-15-16-11-25-17-12-8-34-23-31-21-33-22-11-8-26-17-28-16-16-8-32-12-29-7-18-3-26-2-32-1z"/>
<path transform="translate(1694,1260)" d="m0 0 20 1 16 4 11 5 13 7 11 9 7 6 10 13 10 18 6 21 1 9v17l-2 14-6 18-8 15-10 13-8 8-10 8-19 10-21 6-8 1h-20l-12-2-18-6-16-9-10-8-7-6-9-11-6-10-6-12-5-16-2-16v-11l2-15 5-17 10-19 14-17 10-8 9-6 14-7 12-4 10-2zm-3 62-11 3-12 9-7 11-3 10v13l3 11 8 11 9 7 7 3 11 2 9-1 10-3 10-7 7-8 3-5 3-14-1-11-4-11-7-9-9-7-7-3-5-1z"/>
<path transform="translate(353,1260)" d="m0 0 21 1 15 4 12 5 16 9 15 14 9 11 6 10 6 13 5 19 1 9v13l-3 19-6 17-9 16-12 14-14 12-17 9-19 6-12 2h-20l-16-3-16-6-16-9-15-13-10-12-9-16-6-16-2-9-1-10v-15l2-14 5-16 8-16 6-8 9-11 13-11 18-10 15-5 10-2zm-2 62-11 3-11 8-8 11-3 10-1 9 3 14 7 11 5 5 9 6 15 3 9-1 10-3 11-8 7-9 3-7 1-6v-13l-3-11-7-10-9-7-8-4-5-1z"/>
<path transform="translate(626,1167)" d="m0 0h77l9 3 9 6 6 9 2 6v13l-4 10-5 6-10 6-15 2h-65l-11-2-9-6-5-6-4-8-1-4v-8l3-10 4-6 8-7z"/>
<path transform="translate(1309,1167)" d="m0 0h77l10 3 9 7 5 7 3 11-1 11-6 11-8 7-9 3-10 1h-65l-11-2-6-3-6-5-6-10-2-11 2-10 5-9 8-7z"/>
<path transform="translate(1082,1167)" d="m0 0h76l10 3 8 6 6 8 3 10v7l-3 10-6 8-6 5-9 3-10 1h-65l-11-2-7-4-5-5-5-7-2-6v-13l4-10 5-6 9-6z"/>
<path transform="translate(854,1167)" d="m0 0h77l11 4 6 4 6 8 3 9v11l-3 8-4 6-8 7-9 3-10 1h-65l-11-2-9-6-6-7-4-10v-11l4-10 7-8 7-5z"/>
</svg>
