<?xml version="1.0" encoding="UTF-8"?>
<svg version="1.1" viewBox="0 0 2048 2048" width="512" height="512" xmlns="http://www.w3.org/2000/svg">
<path transform="translate(1077,127)" d="m0 0h23l29 3 24 5 30 10 20 9 20 11 16 11 16 13 10 9 16 16 11 14 10 14 11 18 11 22 9 25 6 23 4 23 1 10v29l-4 10-6 7-8 5-11 4 2 20 5 21 6 16 8 15 10 13 5 11 2 8 1 10-3 16-8 17-8 11-8 9-15 11-8 26-10 19-8 11-3 4h-2l-2 4-10 9-11 7-15 7-17 5-14 2 3 6 26 36 10 13 9 11 9 10 10 10 14 10 17 8 18 4h48l20-3h34l17 3 15 5 16 8 14 10 12 11 7 8v2h2l7-16 8-15 10-14 9-11 10-10 14-11 14-9 16-8 19-7 25-5 21-1 9 2 8 4 7 7 5 9 1 4v270l-4 10-8 9-10 5-5 1h-18l-20-3-18-5-9-3 13 30 23 54 48 112 19 44 10 24v2h19l25 2 23 4 22 6 22 8 25 12 19 12 16 12 14 12 20 20 11 14 12 17 9 16 8 16 8 19 8 27 5 27 1 11v45l-3 21-3 15-4 16-10 27-8 17-13 22-12 16-8 10-9 10-15 15-11 9-15 11-18 11-17 9-27 11-22 6-25 5-20 2h-34l-25-3-23-5-30-10-20-9-18-10-16-11-13-10-10-9-8-7-14-15-11-14-7-10-11-18-10-19-9-23-6-20-6-30h-482l-6 28-6 20-8 21-11 22-12 19-9 12-9 11-11 12-13 13-14 11-14 10-15 9-21 11-20 8-24 7-19 4-22 3h-44l-27-4-24-6-23-8-29-14-16-10-14-10-13-11-12-11-9-9-9-11-8-10-9-13-10-17-8-16-10-25-6-22-5-24-103-1-11-4-9-8-6-12-1-8v-13l1-28 4-40 6-36 7-32 8-28 11-33 15-36 13-27 12-19 11-14 11-12 1-2h-168l-17-3-16-6-14-8-10-8-12-12-9-13-7-14-5-17-2-11v-4h-133l-11-4-9-8-6-12v-16l4-10 2-3h2l2-4 14-7 6-1h129v-63h-69l-11-4-9-8-6-12v-16l4-10 6-7 8-5 6-2 7-1h161l11 2 8 4 7 7 5 9 1 3v16l-6 12-9 8-7 3-6 1-35 1-1 62h64l11 2 10 6 7 8 4 10v15l-6 12-9 8-7 3-5 1-35 1h-23l-11-1 5 12 7 9 9 6 10 3h353l12-4 9-7 6-9 3-10v-257l-4-11-6-9-9-6-9-3-9-1-56-1-1 103-5 12-8 8-9 4-4 1-16 1h-144l-14-1-9-4-8-7-5-7-2-6-1-10-1-93-65 1-9 4-8 6-14 15-8 4-4 1h-14l-10-4-8-7-6-10-1-3v-15l4-10 9-12 8-9 13-10 16-9 20-6 20-2h339l22 2 15 4 16 8 10 6 10 9 2-3 8-23 13-31 13-27 9-16 13-21 11-16 10-13 2-3h2l2-4 9-10 1-2h2l2-4 12-12 22-18 13-9 13-8 21-11 20-8 20-6-5-5-10-9-15-15-11-14-9-12-10-16-12-23-9-23-7-25-4-23-2-20v-25l2-22 5-26 6-21 10-25 8-16 8-14 8-12 12-16 11-12 1-2h2l2-4h2l2-4 8-7 4-2v-2l20-15 19-12 23-12 29-11 19-5 23-4zm6 65-21 2-16 3-23 7-18 8-15 8-16 11-21 18-7 8-10 12-9 13-9 16-6 12-8 22-4 16-3 21-1 21 2 21 4 20 6 20 8 18 10 18 10 14 12 14 14 14 13 10 15 10 15 8 20 8 17 5 13 3 1-94 2-19 5-19 7-17 9-15 7-9 11-12 9-8 13-9 17-9 18-6 17-3 13-1 92-1-1-9-5-19-8-20-10-19-8-12-11-14-20-20-13-10-19-12-23-11-22-7-13-3-16-2-14-1zm103 224-15 2-12 4-10 6-10 9-7 8-8 16-3 13-1 16v112l1 5 9 3 36 11 16 3 8 1h16l13-3 8-4 8-7 8-14 4-13 2-17 6-12 7-6 11-7 11-9-1-5-9-15-8-16-8-21-6-23-3-21-2-16zm-199 224-17 1-19 3-21 6-20 8-18 10-13 9-11 9-10 9-13 13-9 11-13 17-9 14-10 17-12 23-10 22-11 29-10 30-9 33-8 36-5 30-3 29v24h268l8-25 7-19 12-25 8-14 8-12 8-11 9-11 3-3-2-5-10-12-13-18-11-17-6-10-3-9v-9l4-11 6-8 9-6 7-2h11l11 4 4 3h2l2 4 18 28 12 16 9 11 12 13 9 9 11 9 8 7 18 13 24 14 25 12 25 9 21 6h3v-16l2-21 5-22 7-19 8-16 1-3-22-9-17-9-14-10-10-9-8-7-12-12-18-22-14-19-12-17-13-18-13-16-9-10-7-8-12-11-15-11-19-11-20-8-19-5-17-3-28-2zm643 166-16 8-11 8-9 8-8 10-8 14-5 12-4 18-1 16 3 19 5 15 8 15 9 11 10 10 15 10 13 6v-180zm-227 54-17 4-13 7-13 11-8 10-8 14-5 14-2 13v17l2 9h31l26-3 24-5 24-7 28-11 9-5 1-2-7-17-7-18-8-12-10-9-16-8-8-2zm-986 4-1 2v61h95v-63zm695 84-12 17-12 19-10 21-8 22 3 2 25 6 20 7 23 11 19 12 16 13 12 11 11 12 10 13 12 19 8 16 8 20 6 21 3 17 1 10 1 194 7 3 17 6 16 9 12 9 12 11 10 13 9 16 6 15 4 17 5-1 12-12 8-14 6-15 4-17 1-8v-20l-5-26-25-108-16-70-12-52-17-74-16-70-3-2-27-5-26-7-26-9-18-8-16-8-17-9-21-14-16-12zm392 42-23 10-30 10-25 6-15 3-23 3-35 2-1 2 4 15 26 112 29 124 18 77 10 44 3 21v23l-4 27-6 21-8 19-10 18-5 7v1h111l26-36 7-10 10-14 12-17 13-18 12-17 10-14 13-18 24-34 11-15-1-6-11-26-108-252-13-30-16-38zm-767 98-1 2-1 67-3 16-3 10 172 1 26 2 18 4 19 7 16 8 12 8 10 8 12 11 11 13 11 17 9 19 6 18 3 15 1 9 1 84h127v-176l-3-23-5-19-7-18-10-18-9-11-9-10-14-11-14-9-16-8-15-6-22-6-21-3-15-1zm-139 160-20 2-17 4-19 7-15 8-14 10-13 12-9 9-11 16-6 10-13 26-10 24-10 28-9 30-8 36-4 24-4 37v4h606l-2-4-12-21-8-20-5-19-2-14-1-14-1-115-3-15-6-15-7-12-9-11-13-11-14-8-14-5-20-3zm1114 128-11 15-9 13-13 18-7 10-13 18-8 12-2 4 4-2 14-9 15-7 21-6 17-2h17l21 3 21 7 17 9 14 10 13 12 10 13 8 13 8 18 5 19 2 16v15l-2 17-6 21-6 14-10 16-8 10-12 12-11 8-17 10-19 7-17 4-9 1h-23l-18-3-21-7-19-10-10-8-10-9-7-7-11-15-9-17-7-18-1-1h-63l1 10 6 21 9 22 12 21 10 13 12 14 10 10 14 11 15 10 12 7 21 9 15 5 27 5 10 1h28l22-3 21-5 25-10 17-9 12-8 14-11 16-15 7-8 13-18 10-17 7-16 7-21 4-19 2-16v-30l-3-22-5-20-7-19-8-16-8-14-8-11-11-13-15-15-17-13-18-11-19-9-24-8-14-3-15-2-15-1zm-64 90m-1 1m-584 5 1 6 8 14 10 13 8 8 13 9 14 7 14 4 13 2h121l11-1 3-1v-10l-3-12-7-14-11-12-14-8-12-4-8-1zm654 33-13 4-10 5-10 8-9 10-1 3 55 1 11 2 9 6 6 7 4 9v16l-6 12-8 7-11 4-29 1h-28l-2 4 10 11 13 9 12 5 10 2h17l15-4 13-7 12-11 4-5 7-14 3-11 1-15-2-12-5-13-6-10-8-9-10-7-11-5-11-3zm-111 19 1 3zm-1 3-5 6v2h3l3-5zm-1 5m-1056 68 1 10 6 21 9 22 10 18 12 16 12 14 10 10 14 11 15 10 12 7 21 9 15 5 27 5 10 1h29l21-3 17-4 20-7 17-8 18-11 16-12 14-13v-2h2l7-8 12-16 9-15 9-19 8-24 3-12v-5h-63l-4 8-6 15-10 17-9 11-13 13-14 10-19 10-18 6-22 4h-19l-20-3-16-5-16-7-14-9-13-11-9-9-10-13-9-16-8-20-1-1zm137 0-2 4 9 10 13 9 8 4 12 3 12 1 15-2 15-6 11-8 11-11 1-4z"/>
</svg>
