<?xml version="1.0" encoding="UTF-8"?>
<svg version="1.1" viewBox="0 0 800 800" width="200" height="200" xmlns="http://www.w3.org/2000/svg">
<path transform="translate(152,74)" d="m0 0h465l33 1 1 649-1 1h-500l-1-1v-649zm71 51-22 1-1 21v527h399v-549z"/>
<path transform="translate(451,224)" d="m0 0h14l19 1 10 3 11 6 11 11 7 14 2 8 1 85 2 8 4 6 5 4 13 5v50l-13 4-8 8-2 5-1 16-1 73-3 12-5 10-10 11-10 6-11 4-6 1h-30l-1-1v-49l5-1 20 1v-77l2-15 5-13 6-10 7-9-2-5-8-11-5-10-4-13-1-10v-77h-25v-50z"/>
<path transform="translate(331,224)" d="m0 0h16l3 1v50h-25l1 7-1 76-3 14-4 9-6 10-6 8 2 4 7 10 6 12 3 9 1 6v84l25 1v50h-33l-13-4-10-6-9-9-6-10-4-11-1-11-1-81-4-8-5-5-15-6v-49l12-4 6-4 4-5 2-6 1-83 2-12 5-11 6-8 5-5 7-6 12-5 3-1z"/>
<path transform="translate(377,424)" d="m0 0h45l3 1 1 4-1 71h-50l-1-1v-74z"/>
<path transform="translate(377,324)" d="m0 0 48 1v49l-1 1h-49l-1-2v-48z"/>
</svg>
